<?xml version="1.0" encoding="utf-8"?>
<!-- Generator: Adobe Illustrator 16.0.0, SVG Export Plug-In . SVG Version: 6.00 Build 0)  -->
<!DOCTYPE svg PUBLIC "-//W3C//DTD SVG 1.1//EN" "http://www.w3.org/Graphics/SVG/1.1/DTD/svg11.dtd">
<svg version="1.1" id="Layer_1" xmlns="http://www.w3.org/2000/svg" xmlns:xlink="http://www.w3.org/1999/xlink" x="0px" y="0px"
	 width="159.667px" height="46px" viewBox="69.833 56.5 159.667 46" enable-background="new 69.833 56.5 159.667 46"
	 xml:space="preserve">
<g>
	<polyline fill="#5E5B5A" points="130.801,71.7 111.102,71.7 111.102,76.999 118.102,76.999 118.102,96.998 123.901,96.998 
		123.901,76.999 130.801,76.999 130.801,71.7 	"/>
	<path fill="#5E5B5A" d="M142.101,90.1l-0.2,0.301l-0.101,0.3l-0.2,0.198l-0.198,0.301v0.1l-0.102,0.2l-0.099,0.099
		c-0.449,0.404-0.503,0.684-1.101,1.001c-1.209,0.803-1.961,0.861-3.399,0.8c-2.372-0.253-3.882-2.271-3.7-4.6H146.5
		c-0.083-1.267-0.166-2.556-0.4-3.799c-0.145-0.352-0.146-0.853-0.399-1.399c-0.125-0.505-0.435-0.922-0.599-1.401
		c-0.953-1.779-2.537-3.27-4.5-3.899l-0.2-0.1l-0.3-0.101h-0.2l-0.2-0.102l-0.299-0.098c-0.713,0.068-0.949-0.288-1.601-0.201
		c-1.71-0.02-3.44,0.013-5,0.801c-3.238,1.265-4.715,4.075-5.399,7.299c-0.93,6.88,2.705,12.183,9.999,11.899h0.3l0.2-0.1h0.601
		l0.2-0.099h0.599l0.2-0.102l0.3-0.101h0.2c0.403-0.159,0.789-0.361,1.201-0.498h0.2l0.198-0.101l0.2-0.102l0.2-0.198l0.2-0.101
		c0.703-0.29,1.274-0.762,1.8-1.299l0.2-0.102l0.1-0.2l0.2-0.2l0.2-0.099l0.3-0.4c0.506-0.751,0.782-0.952,1.3-1.801L142.101,90.1
		 M133.001,85.3l0.1-0.3v-0.301l0.1-0.1v-0.2l0.101-0.1v-0.201l0.1-0.1l0.2-0.398v-0.102l0.101-0.2l0.2-0.099
		c0.423-0.678,0.145-0.391,0.7-0.801c0.498-0.356,0.652-0.437,1.199-0.599l0.2-0.102h0.5l0.2-0.101h0.4l0.198,0.101h0.601l0.2,0.102
		h0.1c0.717,0.423,0.322-0.056,1,0.498l0.201,0.101l0.099,0.2l0.2,0.099l0.1,0.102l0.2,0.4l0.2,0.099
		c-0.068,0.544,0.369,0.356,0.301,0.9v0.2l0.1,0.1v0.2L140.699,85v0.3H133.001z"/>
	<path fill="#5E5B5A" d="M154.4,80l0.998-1.001L155.6,78.9h0.1l0.101-0.102L156,78.7l0.1-0.1l0.2-0.101l0.4-0.102l0.299-0.099
		l0.399-0.2h0.201c0.707-0.229,1.457-0.241,2.198-0.3c0.548,0.073,1.509,0.09,1.901,0.3c0.664,0.01,1.188,0.426,1.8,0.699l0.2,0.102
		l0.1,0.099l0.199,0.1l0.1,0.101l0.103,0.2l0.198,0.1l0.101,0.101l0.103,0.199L164.7,79.9l0.1,0.2l0.101,0.1l0.101,0.201
		l0.101,0.098V80.7l0.201,0.4v0.1l0.1,0.2v0.198l0.101,0.202v0.498l0.101,0.399v14.3h-5.5c-0.888-6.165,0.357-8.307-0.102-12.899
		l-0.1-0.1v-0.2l-0.102-0.1l-0.197-0.4l-0.103-0.099l-0.099-0.202l-0.103-0.098l-0.2-0.101l-0.1-0.1l-0.2-0.099l-0.1-0.1l-0.2-0.101
		h-0.2l-0.2-0.101H157.7l-0.2-0.1h-0.2l-0.198,0.1c-1.16-0.095-0.824,0.289-1.5,0.301l-0.1,0.099L155,83.199l-0.1,0.198
		l-0.102,0.101v0.2l-0.099,0.2l-0.101,0.1v0.4l-0.101,0.2V85l-0.101,0.198v11.8H148.8V78.3h5.601V80"/>
	<path fill="#5E5B5A" d="M173.999,83.601c0.237-0.332,0.207-1.045,0.7-1.401c0.343-0.413,0.826-0.532,1.3-0.7
		c0.7,0.034,0.033-0.149,1-0.099c0.584-0.044,0.216,0.143,0.801,0.099c0.179,0.185,0.908,0.344,0.899,0.7h0.1v0.1l0.102,0.101v0.2
		c0.277,0.641,0.193,1.414,0.199,2.1c-2.9,0.772-7.496,0.903-9.699,3.201c-0.729,0.638-1.162,1.501-1.5,2.399
		c-0.379,1.046-0.186,2.242,0,3.3c0.287,0.71,0.308,0.734,0.699,1.4c0.621,0.445,0.381,0.982,1.199,1.199
		c0.579,0.765,2.77,1.343,3.7,1.301h1.299l0.302-0.102h0.4l0.197-0.101h0.302l0.2-0.1h0.199c0.203-0.284,0.685-0.125,1.201-0.601
		c0.832-0.201,1.362-0.908,2.1-1.299v1.699h5.398l-0.101-0.099v-0.1l-0.101-0.101v-0.103l-0.101-0.099v-0.2l-0.101-0.1v-0.301
		l-0.098-0.199v-0.201c-0.154-3.757,1.139-11.211-0.701-14.898c-1.492-2.235-4.799-2.836-7.301-2.8
		c-2.158-0.007-4.648,0.31-6.299,1.8l-0.102,0.1l-0.199,0.1l-0.1,0.201l-0.102,0.1l-0.199,0.1l-0.101,0.101l-0.101,0.198
		l-0.101,0.102V80.7l-0.101,0.198l-0.199,0.202v0.198L168.9,81.4v0.099l-0.2,0.601c-0.177,0.462-0.226,0.993-0.2,1.501H173.999
		 M179.1,88.099c0.01,0.893,0.021,1.13-0.101,2.001l-0.101,0.2v0.299l-0.101,0.2v0.1l-0.101,0.201l-0.1,0.1v0.1l-0.101,0.2
		l-0.101,0.099l-0.101,0.202l-0.2,0.198l-0.099,0.2l-0.2,0.2l-0.199,0.102l-0.103,0.099l-0.2,0.1l-0.1,0.202L176.896,93
		l-0.201,0.101l-0.199,0.101l-0.301,0.1h-0.1l-0.101,0.1h-0.399l-0.1,0.101h-0.502l-0.1-0.101h-0.299l-0.102-0.1h-0.2l-0.101-0.1
		h-0.101l-0.198-0.201h-0.102V92.9h-0.1l-0.102-0.202l-0.1-0.1l-0.199-0.4l-0.102-0.099v-0.2l-0.101-0.2v-0.3l0.101-0.101v-0.3
		l0.102-0.101V90.7h0.1v-0.102l0.199-0.198v-0.1l0.2-0.2h0.101C175.379,88.955,177.346,88.737,179.1,88.099z"/>
	<path fill="#5E5B5A" d="M193.1,80.199c1.823-1.303,3.178-1.958,5.498-2.1v4.898c-1.436,0.149-3.643,0.332-4.8,1.302v0.1l-0.2,0.2
		v0.198l-0.099,0.102V85l-0.103,0.198v0.3l-0.099,0.202v11.298h-5.601V78.3h5.4v1.899"/>
	<path fill="#5E5B5A" d="M200.798,96.998V78.3h5.5v18.698H200.798z M200.798,75.898V71.7h5.5v4.198H200.798z"/>
	<path fill="#5E5B5A" d="M210.998,90.7c0.459,0.478,1.04,0.819,1.499,1.298l0.399,0.2l0.602,0.4h0.199l0.201,0.1
		c0.258,0.176,0.584,0.293,0.897,0.3l0.2,0.101h0.199l0.102,0.101h0.398l0.199,0.1c0.369,0,0.734,0,1.102,0l0.3-0.1h0.302
		l0.299-0.101h0.299l0.103-0.101h0.3l0.102-0.098h0.099l0.103-0.102c0.226-0.088,0.578-0.213,0.599-0.501l0.2-0.198l0.1-0.2v-0.1
		l0.102-0.101v-0.5l-0.102-0.1c-0.027-0.191-0.146-0.364-0.3-0.501l-0.101-0.101h-0.101l-0.101-0.098l-0.399-0.202h-0.2
		l-0.099-0.099h-0.2l-0.3-0.1h-0.2l-0.199-0.101c-0.369,0.016-1.565-0.215-2-0.3c-0.541-0.042-1.064-0.218-1.602-0.3
		c-0.482-0.103-1.615-0.608-1.898-0.601c-0.988-0.44-1.096-0.611-1.9-1.199l-0.1-0.202l-0.201-0.099l-0.199-0.399l-0.2-0.201
		l-0.2-0.399l-0.099-0.301l-0.2-0.4v-0.3l-0.1-0.198v-0.501l-0.102-0.3v-0.5l0.102-0.301V82.8l0.1-0.3
		c0.428-1.172,0.846-1.973,1.8-2.801c3.623-3.303,10.798-2.225,14.397,0.799l-3.398,3.103c-1.421-0.923-2.947-1.878-4.699-1.8h-1
		L216,81.9h-0.303L215.6,82h-0.301l-0.199,0.2h-0.102l-0.1,0.1h-0.102v0.101h-0.1l-0.1,0.101v0.1l-0.201,0.2v0.699l0.101,0.102
		v0.198h0.103v0.101l0.098,0.1h0.101v0.1h0.101l0.101,0.101h0.101l0.101,0.101l0.2,0.1h0.199c1.004,0.464,2.172,0.291,3.199,0.7
		c1.201,0.069,3.366,0.857,4.398,1.499c2.77,1.523,3.141,5.481,1.201,7.801c-4.051,4.663-12.789,3.756-16.899-0.5L210.998,90.7"/>
	<rect x="75.603" y="86.199" fill="#079247" width="28.499" height="0.9"/>
	<rect x="75.603" y="71.7" fill="#079247" width="28.499" height="5.299"/>
	<rect x="75.603" y="63.7" fill="#079247" width="28.499" height="1.301"/>
	<rect x="75.603" y="83.699" fill="#035099" width="28.499" height="1.301"/>
	<rect x="75.603" y="66.599" fill="#035099" width="28.499" height="2.702"/>
	<rect x="75.603" y="79.399" fill="#B83B86" width="28.499" height="2.6"/>
	<rect x="75.603" y="61.7" fill="#B83B86" width="28.499" height="0.9"/>
</g>
</svg>
